<svg xmlns="http://www.w3.org/2000/svg" style="background-color: rgb(255, 255, 255);" viewBox="-70.08 -218.48 103.91 218.98"><path d="M8.941599829673509e-14,-1.987022184371891e-14L-42.582134215582656,-217.97651833683219" style="fill:none;stroke:rgb(0,0,0);stroke-opacity:1;stroke-width:1;stroke-linecap:round"/><path d="M-23.164908894177334,-124.65721265447951L-27.841948548131423,-123.67975575603586L-19.130582429731515,-97.92880716960055zM-18.450037260564006,-125.39323259897517L-23.164908894177334,-124.65721265447951L-19.130582429731515,-97.92880716960055zM-27.841948548131423,-123.67975575603586L-32.44435166600358,-122.4684405202168L-19.130582429731515,-97.92880716960055zM-13.734405889358598,-125.88170210544835L-18.450037260564006,-125.39323259897517L-19.130582429731515,-97.92880716960055zM-32.44435166600358,-122.4684405202168L-36.935656954202294,-121.03229731057348L-19.130582429731515,-97.92880716960055zM-9.055266887196336,-126.11800091954788L-13.734405889358598,-125.88170210544835L-19.130582429731515,-97.92880716960055zM-36.935656954202294,-121.03229731057348L-41.279857564338116,-119.3818101437528L-19.130582429731515,-97.92880716960055zM-4.449959167845828,-126.0990369666958L-9.055266887196336,-126.11800091954788L-19.130582429731515,-97.92880716960055zM-41.279857564338116,-119.3818101437528L-45.44148188230059,-117.52891082651836L-19.130582429731515,-97.92880716960055zM0.04418302488850141,-125.82329356308067L-4.449959167845828,-126.0990369666958L-19.130582429731515,-97.92880716960055zM-45.44148188230059,-117.52891082651836L-49.38574288714155,-115.48699829599974L-19.130582429731515,-97.92880716960055zM4.389968563166798,-125.2909013671707L0.04418302488850141,-125.82329356308067L-19.130582429731515,-97.92880716960055zM-49.38574288714155,-115.48699829599974L-53.07866043897812,-113.27094564718426L-19.130582429731515,-97.92880716960055zM8.55046660229399,-124.50369370307774L4.389968563166798,-125.2909013671707L-19.130582429731515,-97.92880716960055z" style="fill:rgb(220,20,60);fill-opacity:1"/><path d="M-53.07866043897814,-113.27094564718425L-56.487248203503285,-110.8971156477267L-19.130582429731515,-97.92880716960055z" style="fill:rgb(100,149,237);fill-opacity:1"/><path d="M12.489204688184511,-123.46530375029268L8.55046660229399,-124.50369370307774L-19.130582429731515,-97.92880716960055z" style="fill:rgb(220,20,60);fill-opacity:1"/><path d="M-56.487248203503285,-110.8971156477267L-59.57971531401549,-108.38336778233935L-19.130582429731515,-97.92880716960055z" style="fill:rgb(100,149,237);fill-opacity:1"/><path d="M16.1703481836442,-122.1812396232463L12.489204688184511,-123.46530375029268L-19.130582429731515,-97.92880716960055z" style="fill:rgb(220,20,60);fill-opacity:1"/><path d="M-59.57971531401549,-108.38336778233935L-62.325708408417526,-105.74905905317307L-19.130582429731515,-97.92880716960055z" style="fill:rgb(100,149,237);fill-opacity:1"/><path d="M19.558955219057445,-120.65898144246461L16.1703481836442,-122.1812396232463L-19.130582429731515,-97.92880716960055z" style="fill:rgb(220,20,60);fill-opacity:1"/><path d="M-62.325708408417526,-105.74905905317307L-64.69657987118622,-103.01502264502525L-19.130582429731515,-97.92880716960055z" style="fill:rgb(100,149,237);fill-opacity:1"/><path d="M22.621254632256182,-118.90806896632309L19.558955219057445,-120.65898144246461L-19.130582429731515,-97.92880716960055z" style="fill:rgb(220,20,60);fill-opacity:1"/><path d="M-64.69657987118622,-103.01502264502525L-66.66571665928267,-100.20354637964722L-19.130582429731515,-97.92880716960055z" style="fill:rgb(100,149,237);fill-opacity:1"/><path d="M25.32497214446911,-116.94018753089544L22.621254632256182,-118.90806896632309L-19.130582429731515,-97.92880716960055z" style="fill:rgb(220,20,60);fill-opacity:1"/><path d="M-66.66571665928267,-100.20354637964722L-68.20886792555277,-97.33830250260861L-19.130582429731515,-97.92880716960055z" style="fill:rgb(100,149,237);fill-opacity:1"/><path d="M27.63968781798913,-114.76923109885979L25.32497214446911,-116.94018753089544L-19.130582429731515,-97.92880716960055z" style="fill:rgb(220,20,60);fill-opacity:1"/><path d="M-68.20886792555277,-97.33830250260861L-69.30455152221771,-94.44427230388008L-19.130582429731515,-97.92880716960055z" style="fill:rgb(100,149,237);fill-opacity:1"/><path d="M29.537259405305637,-112.4113724725031L27.63968781798913,-114.76923109885979L-19.130582429731515,-97.92880716960055z" style="fill:rgb(220,20,60);fill-opacity:1"/><path d="M-69.30455152221771,-94.44427230388008L-69.93445100157359,-91.54761548350582L-19.130582429731515,-97.92880716960055z" style="fill:rgb(100,149,237);fill-opacity:1"/><path d="M30.992242626962792,-109.88507385665771L29.537259405305637,-112.4113724725031L-19.130582429731515,-97.92880716960055z" style="fill:rgb(220,20,60);fill-opacity:1"/><path d="M-69.93445100157359,-91.54761548350582L-70.08384813863354,-88.67551571456099L-19.130582429731515,-97.92880716960055z" style="fill:rgb(100,149,237);fill-opacity:1"/><path d="M31.982390356205144,-107.21110198901081L30.992242626962792,-109.88507385665771L-19.130582429731515,-97.92880716960055z" style="fill:rgb(220,20,60);fill-opacity:1"/><path d="M-66.89052205275378,-75.3344031490153L-66.04598137116507,-72.57066400443713L-68.90292744396469,-83.1175640618717z" style="fill:rgb(100,149,237);fill-opacity:1"/><path d="M33.82536061299073,-90.65601454466923L33.80821098461943,-93.57860043423362L32.489132972752394,-104.41247284358569z" style="fill:rgb(220,20,60);fill-opacity:1"/><path d="M-70.08384813863354,-88.67551571456099L-69.74207059396893,-85.8559750968672L-19.130582429731515,-97.92880716960055zM-69.74207059396893,-85.8559750968672L-66.89052205275378,-75.3344031490153L-68.90292744396469,-83.1175640618717z" style="fill:rgb(100,149,237);fill-opacity:1"/><path d="M32.489132972752394,-104.41247284358569L31.982390356205144,-107.21110198901081L-19.130582429731515,-97.92880716960055z" style="fill:rgb(220,20,60);fill-opacity:1"/><path d="M-66.04598137116507,-72.57066400443713L-64.71061705016884,-69.91605177906368L-67.56512989339654,-80.48913218397868zM-69.74207059396893,-85.8559750968672L-68.90292744396469,-83.1175640618717L-19.130582429731515,-97.92880716960055z" style="fill:rgb(100,149,237);fill-opacity:1"/><path d="M33.34268668744955,-87.66345961015345L33.82536061299073,-90.65601454466923L32.49808406389285,-101.51436939881289zM32.49808406389285,-101.51436939881289L33.82536061299073,-90.65601454466923L32.489132972752394,-104.41247284358569zM32.49808406389285,-101.51436939881289L32.489132972752394,-104.41247284358569L-19.130582429731515,-97.92880716960055z" style="fill:rgb(220,20,60);fill-opacity:1"/><path d="M-68.90292744396469,-83.1175640618717L-66.04598137116507,-72.57066400443713L-67.56512989339654,-80.48913218397868zM-68.90292744396469,-83.1175640618717L-67.56512989339654,-80.48913218397868L-19.130582429731515,-97.92880716960055zM-64.71061705016884,-69.91605177906368L-62.88870835576058,-67.39953497144629L-65.73269831349977,-77.99945167750579z" style="fill:rgb(100,149,237);fill-opacity:1"/><path d="M31.999544710959206,-98.5439993751848L32.49808406389285,-101.51436939881289L-19.130582429731515,-97.92880716960055zM32.355773074796396,-84.63022957863343L33.34268668744955,-87.66345961015345L31.999544710959206,-98.5439993751848zM31.999544710959206,-98.5439993751848L33.34268668744955,-87.66345961015345L32.49808406389285,-101.51436939881289z" style="fill:rgb(220,20,60);fill-opacity:1"/><path d="M-67.56512989339654,-80.48913218397868L-65.73269831349977,-77.99945167750579L-19.130582429731515,-97.92880716960055zM-67.56512989339654,-80.48913218397868L-64.71061705016884,-69.91605177906368L-65.73269831349977,-77.99945167750579z" style="fill:rgb(100,149,237);fill-opacity:1"/><path d="M30.9889740995609,-95.53039340102306L31.999544710959206,-98.5439993751848L-19.130582429731515,-97.92880716960055z" style="fill:rgb(220,20,60);fill-opacity:1"/><path d="M-62.88870835576058,-67.39953497144629L-60.590056450040464,-65.0496400098617L-63.415269510235156,-75.67685110672176zM-65.73269831349977,-77.99945167750579L-63.415269510235156,-75.67685110672176L-19.130582429731515,-97.92880716960055z" style="fill:rgb(100,149,237);fill-opacity:1"/><path d="M30.865697503796703,-81.58714963610873L32.355773074796396,-84.63022957863343L30.9889740995609,-95.53039340102306zM30.9889740995609,-95.53039340102306L32.355773074796396,-84.63022957863343L31.999544710959206,-98.5439993751848zM29.467420020218213,-92.50415005651415L30.9889740995609,-95.53039340102306L-19.130582429731515,-97.92880716960055z" style="fill:rgb(220,20,60);fill-opacity:1"/><path d="M-65.73269831349977,-77.99945167750579L-62.88870835576058,-67.39953497144629L-63.415269510235156,-75.67685110672176zM-63.415269510235156,-75.67685110672176L-60.62838701662706,-73.54877092404152L-19.130582429731515,-97.92880716960055zM-60.590056450040464,-65.0496400098617L-57.83026043194765,-62.89400693862615L-60.62838701662706,-73.54877092404152z" style="fill:rgb(100,149,237);fill-opacity:1"/><path d="M27.44190572765031,-89.49710150875495L29.467420020218213,-92.50415005651415L-19.130582429731515,-97.92880716960055zM28.879405952345277,-78.56623710208689L30.865697503796703,-81.58714963610873L29.467420020218213,-92.50415005651415zM29.467420020218213,-92.50415005651415L30.865697503796703,-81.58714963610873L30.9889740995609,-95.53039340102306z" style="fill:rgb(220,20,60);fill-opacity:1"/><path d="M-60.62838701662706,-73.54877092404152L-57.39365076649181,-71.64132793938165L-19.130582429731515,-97.92880716960055zM-63.415269510235156,-75.67685110672176L-60.590056450040464,-65.0496400098617L-60.62838701662706,-73.54877092404152z" style="fill:rgb(100,149,237);fill-opacity:1"/><path d="M24.925684601500986,-86.54193973373559L27.44190572765031,-89.49710150875495L-19.130582429731515,-97.92880716960055z" style="fill:rgb(220,20,60);fill-opacity:1"/><path d="M-57.83026043194765,-62.89400693862615L-54.630855251302485,-60.95895446944768L-57.39365076649181,-71.64132793938165zM-57.39365076649181,-71.64132793938165L-53.73878539966556,-69.97883225326507L-19.130582429731515,-97.92880716960055z" style="fill:rgb(100,149,237);fill-opacity:1"/><path d="M26.409957159961795,-75.60032433507521L28.879405952345277,-78.56623710208689L27.44190572765031,-89.49710150875495zM21.938444279722916,-83.67175836096341L24.925684601500986,-86.54193973373559L-19.130582429731515,-97.92880716960055zM27.44190572765031,-89.49710150875495L28.879405952345277,-78.56623710208689L29.467420020218213,-92.50415005651415z" style="fill:rgb(220,20,60);fill-opacity:1"/><path d="M-60.62838701662706,-73.54877092404152L-57.83026043194765,-62.89400693862615L-57.39365076649181,-71.64132793938165zM-53.73878539966556,-69.97883225326507L-49.697566123406816,-68.5833108197236L-19.130582429731515,-97.92880716960055zM-54.630855251302485,-60.95895446944768L-51.019370009544005,-59.26899769567506L-53.73878539966556,-69.97883225326507z" style="fill:rgb(100,149,237);fill-opacity:1"/><path d="M18.506337614886707,-80.91957209487846L21.938444279722916,-83.67175836096341L-19.130582429731515,-97.92880716960055zM23.476718311944996,-72.72259802852211L26.409957159961795,-75.60032433507521L24.925684601500986,-86.54193973373559z" style="fill:rgb(220,20,60);fill-opacity:1"/><path d="M-49.697566123406816,-68.5833108197236L-45.30960998649598,-67.47403516084721L-19.130582429731515,-97.92880716960055z" style="fill:rgb(100,149,237);fill-opacity:1"/><path d="M24.925684601500986,-86.54193973373559L26.409957159961795,-75.60032433507521L27.44190572765031,-89.49710150875495z" style="fill:rgb(220,20,60);fill-opacity:1"/><path d="M14.661902073464567,-78.31777577618804L18.506337614886707,-80.91957209487846L-19.130582429731515,-97.92880716960055zM-57.39365076649181,-71.64132793938165L-54.630855251302485,-60.95895446944768L-53.73878539966556,-69.97883225326507zM-45.30960998649598,-67.47403516084721L-40.61999735728767,-66.6670848961667L-19.130582429731515,-97.92880716960055zM-51.019370009544005,-59.26899769567506L-47.0292472080988,-57.846372615776005L-49.697566123406816,-68.5833108197236zM10.443812317945309,-75.89758761019199L14.661902073464567,-78.31777577618804L-19.130582429731515,-97.92880716960055z" style="fill:rgb(100,149,237);fill-opacity:1"/><path d="M20.10539135006583,-69.96611787649282L23.476718311944996,-72.72259802852211L21.938444279722916,-83.67175836096341z" style="fill:rgb(220,20,60);fill-opacity:1"/><path d="M-40.61999735728767,-66.6670848961667L-35.67878555390173,-66.17493157310844L-19.130582429731515,-97.92880716960055zM5.896481158046902,-73.6884802821516L10.443812317945309,-75.89758761019199L-19.130582429731515,-97.92880716960055z" style="fill:rgb(100,149,237);fill-opacity:1"/><path d="M21.938444279722916,-83.67175836096341L23.476718311944996,-72.72259802852211L24.925684601500986,-86.54193973373559z" style="fill:rgb(220,20,60);fill-opacity:1"/><path d="M-35.67878555390173,-66.17493157310844L-30.540315435056915,-66.00611720873036L-19.130582429731515,-97.92880716960055zM-53.73878539966556,-69.97883225326507L-51.019370009544005,-59.26899769567506L-49.697566123406816,-68.5833108197236zM-47.0292472080988,-57.846372615776005L-42.69963108204101,-56.71056478810292L-45.30960998649598,-67.47403516084721zM1.069483227101211,-71.71762691824954L5.896481158046902,-73.6884802821516L-19.130582429731515,-97.92880716960055zM16.327931168564355,-67.36327602366562L20.10539135006583,-69.96611787649282L18.506337614886707,-80.91957209487846zM-30.540315435056915,-66.00611720873036L-25.26244401452375,-66.16496820724261L-19.130582429731515,-97.92880716960055zM-3.9831260317115267,-70.00936380196565L1.069483227101211,-71.71762691824954L-19.130582429731515,-97.92880716960055zM-25.26244401452375,-66.16496820724261L-19.90560925643584,-66.65143212949255L-19.130582429731515,-97.92880716960055zM-9.203683209278116,-68.58472175586826L-3.9831260317115267,-70.00936380196565L-19.130582429731515,-97.92880716960055zM-19.90560925643584,-66.65143212949255L-14.531838647173501,-67.4609980756825L-19.130582429731515,-97.92880716960055zM-14.531838647173501,-67.4609980756825L-9.203683209278116,-68.58472175586826L-19.130582429731515,-97.92880716960055z" style="fill:rgb(100,149,237);fill-opacity:1"/><path d="M18.506337614886707,-80.91957209487846L20.10539135006583,-69.96611787649282L21.938444279722916,-83.67175836096341z" style="fill:rgb(220,20,60);fill-opacity:1"/><path d="M-42.69963108204101,-56.71056478810292L-38.074990842139435,-55.87787357030771L-40.61999735728767,-66.6670848961667zM-49.697566123406816,-68.5833108197236L-47.0292472080988,-57.846372615776005L-45.30960998649598,-67.47403516084721zM12.182301504433111,-64.94524224378834L16.327931168564355,-67.36327602366562L14.661902073464567,-78.31777577618804zM-38.074990842139435,-55.87787357030771L-33.20464001169502,-55.360996286200006L-35.67878555390173,-66.17493157310844zM14.661902073464567,-78.31777577618804L16.327931168564355,-67.36327602366562L18.506337614886707,-80.91957209487846zM7.712083745382275,-62.741398279848276L12.182301504433111,-64.94524224378834L10.443812317945309,-75.89758761019199zM-45.30960998649598,-67.47403516084721L-42.69963108204101,-56.71056478810292L-40.61999735728767,-66.6670848961667zM-33.20464001169502,-55.360996286200006L-28.14205462457001,-55.168706449614L-30.540315435056915,-66.00611720873036zM2.965913451879308,-60.778788298811975L7.712083745382275,-62.741398279848276L5.896481158046902,-73.6884802821516zM10.443812317945309,-75.89758761019199L12.182301504433111,-64.94524224378834L14.661902073464567,-78.31777577618804zM-40.61999735728767,-66.6670848961667L-38.074990842139435,-55.87787357030771L-35.67878555390173,-66.17493157310844zM-28.14205462457001,-55.168706449614L-22.94412100320084,-55.305566572051525L-25.26244401452375,-66.16496820724261zM-2.0031839414047763,-59.08158671493571L2.965913451879308,-60.778788298811975L1.069483227101211,-71.71762691824954zM-22.94412100320084,-55.305566572051525L-17.67022089149591,-55.771762886993166L-19.90560925643584,-66.65143212949255zM-7.138644441072652,-57.67063564999052L-2.0031839414047763,-59.08158671493571L-3.9831260317115267,-70.00936380196565zM5.896481158046902,-73.6884802821516L7.712083745382275,-62.741398279848276L10.443812317945309,-75.89758761019199zM-17.67022089149591,-55.771762886993166L-12.381263279298459,-56.563022744398545L-14.531838647173501,-67.4609980756825zM-12.381263279298459,-56.563022744398545L-7.138644441072652,-57.67063564999052L-9.203683209278116,-68.58472175586826zM-35.67878555390173,-66.17493157310844L-33.20464001169502,-55.360996286200006L-30.540315435056915,-66.00611720873036zM1.069483227101211,-71.71762691824954L2.965913451879308,-60.778788298811975L5.896481158046902,-73.6884802821516zM-30.540315435056915,-66.00611720873036L-28.14205462457001,-55.168706449614L-25.26244401452375,-66.16496820724261zM-3.9831260317115267,-70.00936380196565L-2.0031839414047763,-59.08158671493571L1.069483227101211,-71.71762691824954zM-25.26244401452375,-66.16496820724261L-22.94412100320084,-55.305566572051525L-19.90560925643584,-66.65143212949255zM-9.203683209278116,-68.58472175586826L-7.138644441072652,-57.67063564999052L-3.9831260317115267,-70.00936380196565zM-19.90560925643584,-66.65143212949255L-17.67022089149591,-55.771762886993166L-14.531838647173501,-67.4609980756825zM-14.531838647173501,-67.4609980756825L-12.381263279298459,-56.563022744398545L-9.203683209278116,-68.58472175586826z" style="fill:rgb(100,149,237);fill-opacity:1"/></svg>